<?xml version="1.0" encoding="UTF-8" standalone="no"?>
<svg
   xmlns:osb="http://www.openswatchbook.org/uri/2009/osb"
   xmlns:dc="http://purl.org/dc/elements/1.1/"
   xmlns:cc="http://creativecommons.org/ns#"
   xmlns:rdf="http://www.w3.org/1999/02/22-rdf-syntax-ns#"
   xmlns:svg="http://www.w3.org/2000/svg"
   xmlns="http://www.w3.org/2000/svg"
   xmlns:xlink="http://www.w3.org/1999/xlink"
   xmlns:sodipodi="http://sodipodi.sourceforge.net/DTD/sodipodi-0.dtd"
   xmlns:inkscape="http://www.inkscape.org/namespaces/inkscape"
   height="512pt"
   viewBox="0 0 512 512"
   width="512pt"
   version="1.1"
   id="svg3801"
   sodipodi:docname="owl.svg"
   inkscape:version="0.92.4 (5da689c313, 2019-01-14)">
  <metadata
     id="metadata3807">
    <rdf:RDF>
      <cc:Work
         rdf:about="">
        <dc:format>image/svg+xml</dc:format>
        <dc:type
           rdf:resource="http://purl.org/dc/dcmitype/StillImage" />
        <dc:title></dc:title>
      </cc:Work>
    </rdf:RDF>
  </metadata>
  <defs
     id="defs3805">
    <linearGradient
       inkscape:collect="always"
       xlink:href="#a"
       id="linearGradient4646"
       gradientUnits="userSpaceOnUse"
       x1="0"
       y1="260.69724"
       x2="512"
       y2="260.69724" />
  </defs>
  <sodipodi:namedview
     pagecolor="#ffffff"
     bordercolor="#666666"
     borderopacity="1"
     objecttolerance="10"
     gridtolerance="10"
     guidetolerance="10"
     inkscape:pageopacity="0"
     inkscape:pageshadow="2"
     inkscape:window-width="1366"
     inkscape:window-height="740"
     id="namedview3803"
     showgrid="false"
     inkscape:zoom="0.79833984"
     inkscape:cx="134.02813"
     inkscape:cy="341.33333"
     inkscape:window-x="0"
     inkscape:window-y="0"
     inkscape:window-maximized="1"
     inkscape:current-layer="svg3801" />
  <linearGradient
     id="a"
     gradientUnits="userSpaceOnUse"
     x1="0"
     x2="512"
     y1="256"
     y2="256"
     gradientTransform="translate(0,4.6972476)"
     osb:paint="gradient">
    <stop
       offset="0"
       stop-color="#00f1ff"
       id="stop3780"
       style="stop-color:#80d4e7;stop-opacity:1;" />
    <stop
       offset=".231"
       stop-color="#00d8ff"
       id="stop3782" />
    <stop
       offset=".5138"
       stop-color="#00c0ff"
       id="stop3784" />
    <stop
       offset=".7773"
       stop-color="#00b2ff"
       id="stop3786" />
    <stop
       offset="1"
       stop-color="#00adff"
       id="stop3788" />
  </linearGradient>
  <path
     d="m 512,260.69725 c 0,141.38672 -114.61328,256 -256,256 -141.38672,0 -256,-114.61328 -256,-256 C 0,119.31053 114.61328,4.6972476 256,4.6972476 c 141.38672,0 256,114.6132824 256,256.0000024 z m 0,0"
     id="path3791"
     style="fill:#000;fill-opacity:1;paint-order:stroke markers fill"
     inkscape:connector-curvature="0" />
  <g
     id="g3799"
     transform="matrix(1.0521894,-0.02737751,0.02411554,0.9268232,-14.350692,24.114849)"
     style="fill:#000;stroke-width:4.75922216;stroke-miterlimit:4;stroke-dasharray:none;fill-opacity:1">
    <path
       style="color:#000000;font-style:normal;font-variant:normal;font-weight:normal;font-stretch:normal;font-size:medium;line-height:normal;font-family:sans-serif;font-variant-ligatures:normal;font-variant-position:normal;font-variant-caps:normal;font-variant-numeric:normal;font-variant-alternates:normal;font-feature-settings:normal;text-indent:0;text-align:start;text-decoration:none;text-decoration-line:none;text-decoration-style:solid;text-decoration-color:#000000;letter-spacing:normal;word-spacing:normal;text-transform:none;writing-mode:lr-tb;direction:ltr;text-orientation:mixed;dominant-baseline:auto;baseline-shift:baseline;text-anchor:start;white-space:normal;shape-padding:0;clip-rule:nonzero;display:inline;overflow:visible;visibility:visible;opacity:1;isolation:auto;mix-blend-mode:normal;color-interpolation:sRGB;color-interpolation-filters:linearRGB;solid-color:#000000;solid-opacity:1;vector-effect:none;fill-opacity:1;fill-rule:nonzero;stroke:none;stroke-width:0.75922216;stroke-linecap:butt;stroke-linejoin:miter;stroke-miterlimit:4;stroke-dasharray:none;stroke-dashoffset:0;stroke-opacity:1;color-rendering:auto;image-rendering:auto;shape-rendering:auto;text-rendering:auto;enable-background:accumulate;fill:#f7ffff"
       d="m 133.13867,82.125 c -8.6322,-0.615156 -15.82793,5.939605 -16.00976,14.578125 -0.18192,8.642245 6.6512,16.125095 15.2832,16.740235 l 10.29492,0.73437 c 4.04574,0.28831 7.99451,0.93949 11.86133,1.82227 -23.90488,20.22837 -39.28853,50.3308 -40.01563,84.87305 -1.3968,66.35878 17.27705,121.28253 55.50782,163.11133 4.24384,4.64481 8.74883,9.06469 13.42383,13.33593 -4.32949,0.85605 -8.52066,2.37116 -12.31446,4.75 -10.35564,6.49476 -16.69411,17.84346 -16.95703,30.33399 -0.18192,8.64247 6.65493,16.12731 15.2832,16.74218 8.63201,0.61515 15.82591,-5.93586 16.00782,-14.57812 0.0692,-3.2892 2.00582,-4.92885 3.15625,-5.64844 v -0.002 c 1.14252,-0.71959 3.46975,-1.75258 6.53711,-0.43945 3.05625,1.31195 5.94563,2.57709 8.74023,3.80468 h 0.002 c 26.6122,11.67446 45.78062,20.059 115.66797,27 6.39971,0.92402 11.18843,1.36181 13.83985,1.55078 l 0.14257,0.01 h 0.002 c 0.81743,0.0543 1.60924,0.025 2.38086,-0.041 8.82779,0.76585 18.35555,1.51916 28.69336,2.25586 8.62848,0.61489 15.82793,-5.93939 16.00976,-14.57812 0.17477,-8.30277 -6.14092,-15.46648 -14.28516,-16.57227 l 0.0566,-0.0977 -1.05469,-0.0742 c -8.46852,-0.60349 -15.23475,-7.96752 -15.15039,-16.42774 l -0.002,0.008 0.69922,-32.62891 c 0.18183,-8.63831 -6.64542,-16.12492 -15.27734,-16.74414 h -0.004 l -0.002,-0.002 c -8.62826,-0.61487 -15.82598,5.93549 -16.00781,14.57421 l -0.51953,24.2793 c -6.1e-4,0.0165 -0.0127,0.0889 -0.0156,0.23047 l -0.0996,4.65234 c -1.17036,-1.46513 -2.34365,-2.9326 -3.51953,-4.54492 -15.92465,-21.8727 -23.70929,-46.20923 -23.1582,-72.39062 0.76214,-36.20789 19.29907,-62.60465 29.92578,-74.91797 l -1.20313,56.4668 c -0.18608,8.64216 6.64496,16.12925 15.27344,16.74414 h 0.01 c 8.62805,0.61486 15.8219,-5.93028 16.00781,-14.56836 l 1.67773,-78.59375 c 0.72814,-34.59182 -13.37755,-66.81209 -36.40429,-90.375 3.66601,-0.26874 7.39483,-0.32929 11.19336,-0.0586 l 10.00976,0.71485 c 8.62827,0.61487 15.82786,-5.93567 16.00977,-14.57813 0.18184,-8.63873 -6.65474,-16.127295 -15.28321,-16.742186 l -10.01171,-0.71289 C 313.4052,94.97121 298.01018,97.41521 284.08203,102.73828 269.65892,95.38454 253.69546,90.716387 236.8457,89.515625 219.83319,88.303266 203.56642,90.743296 188.75586,96.130859 175.03559,88.722188 159.69076,84.017907 143.43359,82.859375 Z m -0.0957,1.326172 10.29687,0.734375 c 16.16276,1.151804 31.41849,5.837581 45.04493,13.240234 l 0.26367,0.144531 0.2832,-0.103515 c 14.7102,-5.394369 30.8882,-7.83163 47.82031,-6.625 16.76526,1.19474 32.65007,5.845558 46.98828,13.197263 l 0.26368,0.13672 0.27734,-0.10742 c 13.81896,-5.32585 29.11909,-7.764644 45.16602,-6.621094 l 10.01171,0.71289 c 7.91311,0.563912 14.21359,7.468804 14.04688,15.388674 -0.16679,7.92394 -6.67067,13.84322 -14.58398,13.27929 l -10.01172,-0.71289 c -4.34419,-0.30957 -8.61341,-0.24839 -12.78125,0.12891 l -1.41211,0.12891 1.00195,1.0039 c 23.38214,23.40607 37.70915,55.75632 36.97852,90.4668 l -1.67774,78.59375 c -0.17045,7.91996 -6.67046,13.83542 -14.58398,13.27148 h -0.008 c -7.91312,-0.56391 -14.21163,-7.46694 -14.04101,-15.39062 l 1.28516,-60.26172 -1.20118,1.35352 c -10.50931,11.84631 -30.66513,39.40492 -31.46289,77.30468 -0.55701,26.46245 7.33242,51.11552 23.41211,73.20118 1.57228,2.15585 3.14849,4.18216 4.70703,6.07812 l 1.14063,1.38672 0.17383,-8.32813 c 2.7e-4,-0.0135 0.014,-0.086 0.0176,-0.22656 v -0.002 l 0.51954,-24.2793 c 0.1667,-7.91987 6.67066,-13.84126 14.58398,-13.27734 l 0.004,0.002 c 7.91729,0.56796 14.21163,7.47034 14.04492,15.39063 l -0.69922,32.63086 v 0.004 c -0.0881,8.8316 6.69186,16.44986 15.38672,17.5957 l -0.0547,0.0957 1.05469,0.0762 c 7.91739,0.56422 14.21376,7.46239 14.04687,15.39062 -0.1667,7.91988 -6.67086,13.84321 -14.58398,13.2793 -10.33923,-0.7368 -19.86925,-1.49005 -28.69531,-2.25586 l -0.0586,-0.006 -0.0586,0.006 c -0.74815,0.0675 -1.50195,0.0914 -2.26563,0.041 l -0.14062,-0.01 c -2.62556,-0.1871 -7.38674,-0.61975 -13.77344,-1.54297 l -0.0156,-0.002 -0.0156,-0.002 c -69.80673,-6.933 -88.6535,-15.22011 -115.26562,-26.89453 -2.79567,-1.22807 -5.69018,-2.49427 -8.75196,-3.8086 -3.531,-1.51161 -6.39966,-0.32639 -7.76758,0.53516 -1.3757,0.86077 -3.69717,2.93817 -3.77734,6.74805 -0.16679,7.92415 -6.66854,13.84351 -14.58594,13.27929 -7.91332,-0.56392 -14.21367,-7.46277 -14.04687,-15.38672 0.25382,-12.05836 6.36184,-22.98404 16.33398,-29.23828 3.98853,-2.50095 8.40919,-4.12094 13.00391,-4.87695 l 1.36133,-0.22266 -1.02344,-0.92578 c -4.96548,-4.48706 -9.69729,-9.18021 -14.17773,-14.08398 -37.98544,-41.56038 -56.54945,-96.0892 -55.15821,-162.1836 0.72941,-34.65223 16.31373,-64.79401 40.51563,-84.7832 l 1.02148,-0.84375 -1.28711,-0.31445 c -4.32524,-1.05722 -8.77276,-1.78462 -13.33008,-2.10938 l -10.29687,-0.73437 c -7.91739,-0.56422 -14.21368,-7.46258 -14.04688,-15.386721 0.16671,-7.920078 6.66681,-13.843499 14.58399,-13.279297 z m 94.43555,35.861328 c -2.87869,0.0756 -5.71922,0.28842 -8.51758,0.63281 l -1.2793,0.15821 0.86914,0.95117 c 6.2202,6.80947 11.62775,14.35737 16.06836,22.45898 l 0.53906,0.98047 0.60352,-0.94141 c 4.81562,-7.49773 10.58631,-14.2889 17.14648,-20.21679 l 0.91602,-0.82813 -1.19336,-0.30859 c -5.3115,-1.37521 -10.79608,-2.28924 -16.41211,-2.68945 -2.94565,-0.20992 -5.86154,-0.27289 -8.74023,-0.19727 z m 0.0351,1.32812 c 2.83578,-0.0745 5.70892,-0.0135 8.61133,0.19336 5.13618,0.36602 10.14439,1.213 15.02539,2.41016 -6.02089,5.57637 -11.36621,11.86763 -15.90234,18.77734 -4.18473,-7.47994 -9.19252,-14.46646 -14.89258,-20.84765 2.36216,-0.25712 4.73895,-0.46965 7.1582,-0.53321 z m -39.97851,9.61915 -0.39063,0.22265 c -16.08798,9.18231 -28.82962,23.48874 -36.05664,40.92578 l -0.0527,0.125 0.002,0.13477 c 0.14566,19.17563 15.51135,35.67141 34.75781,37.04297 14.99833,1.06883 28.07873,-7.38527 33.57031,-20.21289 l 0.0664,-0.15235 -0.0137,-0.16601 c -0.0394,-0.45667 -0.0982,-0.89456 -0.14258,-1.31641 l -0.002,-0.0156 -0.002,-0.0156 c -0.18405,-1.19607 -0.34133,-2.3971 -0.46289,-3.60156 l -0.002,-0.0176 -0.002,-0.0156 c -3.191,-20.98516 -14.62246,-39.7576 -30.91797,-52.65821 z m -0.12305,1.62304 c 15.84767,12.6894 26.96404,31.03432 30.07812,51.51367 0.12366,1.21891 0.28134,2.4315 0.4668,3.63672 0.0393,0.36988 0.0828,0.72592 0.11719,1.07618 -5.3095,12.24165 -17.79183,20.30113 -32.18555,19.27539 -18.50029,-1.31839 -33.30432,-17.18768 -33.50976,-35.60547 7.06331,-16.95489 19.43209,-30.87588 35.0332,-39.89649 z m 96.43359,4.94727 -0.3789,0.23242 c -16.30061,10.03089 -28.35426,26.15782 -33.01172,45.5332 l -0.0117,0.0449 -0.004,0.0449 c -0.25118,2.55782 -0.64552,5.06952 -1.1875,7.50976 l -0.041,0.1875 0.0644,0.18164 c 4.89322,13.60997 17.55961,23.92221 32.60156,24.99414 19.59209,1.3962 35.91528,-13.46245 36.32813,-33.07617 v -0.002 c 0.004,-0.18995 0.0287,-0.39558 0.0469,-0.64453 l 0.0117,-0.14649 -0.0508,-0.13476 c -6.67194,-17.84255 -18.65363,-33.37521 -34.00781,-44.46485 z m -0.0566,1.61914 c 14.92844,10.89261 26.59452,26.05498 33.12696,43.44922 -0.0154,0.16866 -0.0365,0.33843 -0.041,0.55468 -0.39767,18.89285 -16.02939,33.12439 -34.9043,31.7793 -14.43964,-1.02901 -26.62818,-10.92786 -31.38281,-23.98242 0.52283,-2.39802 0.91354,-4.85278 1.16211,-7.35352 4.53967,-18.87341 16.23002,-34.58205 32.03906,-44.44726 z m -50.04492,80.66601 -0.51562,0.51954 c -3.21295,3.24378 -6.80098,6.10699 -10.6836,8.55468 l -0.72851,0.45899 0.6289,0.58789 c 3.65996,3.41733 6.9655,6.97861 9.9043,10.69336 l 0.47656,0.60351 0.52735,-0.56054 c 3.17224,-3.36308 6.76143,-6.52818 10.7539,-9.49805 l 0.68946,-0.51367 -0.66797,-0.53711 c -3.61999,-2.91231 -6.94985,-6.17654 -9.91602,-9.7461 z m -89.02148,0.62696 v 1.46679 0.0137 0.0156 c 2.15791,49.88252 17.90604,91.24339 46.96093,123.0332 30.45112,33.3192 69.27352,50.03592 98.82618,58.39649 l 1.84179,0.52148 -1.12304,-1.55078 c -15.19006,-20.96808 -29.68239,-51.46789 -28.84961,-91.03125 0.55703,-26.46313 8.45251,-48.58238 17.63281,-65.52734 l 0.91797,-1.69336 -1.76758,0.76758 c -17.82165,7.73949 -28.75329,17.55025 -33.13672,29.97851 -1.98994,5.63818 -7.35418,9.21314 -13.42578,8.9375 h -0.002 -0.002 c -0.11856,-0.005 -0.23978,-0.0124 -0.36914,-0.0215 h -0.002 c -5.92271,-0.42285 -11.19763,-4.4701 -13.21094,-10.19727 h 0.002 c -4.80587,-13.69519 -15.36754,-25.26743 -32.08007,-35.3164 l -0.14453,-0.0859 -0.16797,-0.008 c -0.47195,-0.0216 -0.92322,-0.031 -1.36524,-0.0625 -14.98486,-1.06786 -28.67328,-7.23245 -39.43164,-16.66993 z m 88.93359,1.29297 c 2.7353,3.22594 5.76322,6.19402 9.0293,8.88281 -3.58156,2.71332 -6.84317,5.58814 -9.76953,8.63086 -2.70579,-3.36396 -5.70707,-6.59909 -8.99219,-9.71289 3.50462,-2.27354 6.76866,-4.8774 9.73242,-7.80078 z m -87.49219,1.58398 c 10.78158,9.05837 24.24092,15.03417 39,16.08594 0.42128,0.03 0.81859,0.039 1.21094,0.0547 16.45802,9.92445 26.71573,21.22599 31.38477,34.53125 v 0.002 c 2.18903,6.22707 7.90401,10.62118 14.37109,11.08203 h 0.002 c 0.12738,0.009 0.26194,0.0174 0.40821,0.0234 6.62938,0.30011 12.55683,-3.64149 14.73828,-9.82227 4.07402,-11.551 14.1947,-20.81113 30.69922,-28.32422 -8.86824,16.8619 -16.38583,38.49047 -16.92969,64.32813 -0.82006,38.95935 13.117,69.17104 28.02929,90.25586 -29.16929,-8.47693 -66.78629,-25.04265 -96.41406,-57.46094 -28.54419,-31.23104 -44.11007,-71.77959 -46.5,-120.75586 z"
       id="path3793"
       inkscape:connector-curvature="0" />
  </g>
</svg>
